<?xml version="1.0" encoding="UTF-8" standalone="no"?>
<svg
   xmlns:dc="http://purl.org/dc/elements/1.1/"
   xmlns:cc="http://creativecommons.org/ns#"
   xmlns:rdf="http://www.w3.org/1999/02/22-rdf-syntax-ns#"
   xmlns:svg="http://www.w3.org/2000/svg"
   xmlns="http://www.w3.org/2000/svg"
   version="1.1"
   id="svg2"
   viewBox="0 0 24 24"
   height="24"
   width="24">
  <defs
     id="defs4" />
  <metadata
     id="metadata7">
    <rdf:RDF>
      <cc:Work
         rdf:about="">
        <dc:format>image/svg+xml</dc:format>
        <dc:type
           rdf:resource="http://purl.org/dc/dcmitype/StillImage" />
        <dc:title></dc:title>
      </cc:Work>
    </rdf:RDF>
  </metadata>
  <g
     transform="translate(0,-1028.3622)"
     id="layer1">
    <path
       style="color:#000000;font-style:normal;font-variant:normal;font-weight:normal;font-stretch:normal;font-size:medium;line-height:normal;font-family:sans-serif;font-variant-ligatures:normal;font-variant-position:normal;font-variant-caps:normal;font-variant-numeric:normal;font-variant-alternates:normal;font-variant-east-asian:normal;font-feature-settings:normal;font-variation-settings:normal;text-indent:0;text-align:start;text-decoration:none;text-decoration-line:none;text-decoration-style:solid;text-decoration-color:#000000;letter-spacing:normal;word-spacing:normal;text-transform:none;writing-mode:lr-tb;direction:ltr;text-orientation:mixed;dominant-baseline:auto;baseline-shift:baseline;text-anchor:start;white-space:normal;shape-padding:0;shape-margin:0;inline-size:0;clip-rule:nonzero;display:inline;overflow:visible;visibility:visible;opacity:1;isolation:auto;mix-blend-mode:normal;color-interpolation:sRGB;color-interpolation-filters:linearRGB;solid-color:#000000;solid-opacity:1;vector-effect:none;fill:#000000;fill-opacity:1;fill-rule:evenodd;stroke:none;stroke-width:2;stroke-linecap:butt;stroke-linejoin:miter;stroke-miterlimit:4;stroke-dasharray:none;stroke-dashoffset:0;stroke-opacity:1;color-rendering:auto;image-rendering:auto;shape-rendering:auto;text-rendering:auto;enable-background:accumulate"
       d="m 5.5,1036.3622 c -0.831,0 -1.5,0.669 -1.5,1.5 v 5 c 0,0.831 0.669,1.5 1.5,1.5 h 13 c 0.831,0 1.5,-0.669 1.5,-1.5 v -5 c 0,-0.831 -0.669,-1.5 -1.5,-1.5 z m 0.3007812,1 H 18.199219 c 0.4432,0 0.800781,0.3576 0.800781,0.8008 v 4.3984 c 0,0.4432 -0.357581,0.8008 -0.800781,0.8008 H 5.8007812 C 5.3575812,1043.3622 5,1043.0046 5,1042.5614 v -4.3984 c 0,-0.4432 0.3575812,-0.8008 0.8007812,-0.8008 z"
       id="path1148" />
    <path
       id="path1150"
       transform="translate(0,1028.3622)"
       d="M 5.5 7 C 4.1322972 7 3 8.1323 3 9.5 L 3 14.5 C 3 15.8677 4.1322972 17 5.5 17 L 18.5 17 C 19.867703 17 21 15.8677 21 14.5 L 21 9.5 C 21 8.1323 19.867703 7 18.5 7 L 5.5 7 z M 6.5 10 L 17.5 10 C 17.777 10 18 10.223 18 10.5 L 18 13.5 C 18 13.777 17.777 14 17.5 14 L 6.5 14 C 6.223 14 6 13.777 6 13.5 L 6 10.5 C 6 10.223 6.223 10 6.5 10 z "
       style="color:#000000;font-style:normal;font-variant:normal;font-weight:normal;font-stretch:normal;font-size:medium;line-height:normal;font-family:sans-serif;font-variant-ligatures:normal;font-variant-position:normal;font-variant-caps:normal;font-variant-numeric:normal;font-variant-alternates:normal;font-variant-east-asian:normal;font-feature-settings:normal;font-variation-settings:normal;text-indent:0;text-align:start;text-decoration:none;text-decoration-line:none;text-decoration-style:solid;text-decoration-color:#000000;letter-spacing:normal;word-spacing:normal;text-transform:none;writing-mode:lr-tb;direction:ltr;text-orientation:mixed;dominant-baseline:auto;baseline-shift:baseline;text-anchor:start;white-space:normal;shape-padding:0;shape-margin:0;inline-size:0;clip-rule:nonzero;display:inline;overflow:visible;visibility:visible;opacity:1;isolation:auto;mix-blend-mode:normal;color-interpolation:sRGB;color-interpolation-filters:linearRGB;solid-color:#000000;solid-opacity:1;vector-effect:none;fill:#ffffff;fill-opacity:1;fill-rule:evenodd;stroke:none;stroke-width:2;stroke-linecap:butt;stroke-linejoin:miter;stroke-miterlimit:4;stroke-dasharray:none;stroke-dashoffset:0;stroke-opacity:1;color-rendering:auto;image-rendering:auto;shape-rendering:auto;text-rendering:auto;enable-background:accumulate" />
    <path
       id="rect976"
       d="m 5.5,1036.3622 c -0.831,0 -1.5,0.669 -1.5,1.5 v 5 c 0,0.831 0.669,1.5 1.5,1.5 h 13 c 0.831,0 1.5,-0.669 1.5,-1.5 v -5 c 0,-0.831 -0.669,-1.5 -1.5,-1.5 z m 0.3007812,1 H 18.199219 c 0.4432,0 0.800781,0.3576 0.800781,0.8008 v 4.3984 c 0,0.4432 -0.357581,0.8008 -0.800781,0.8008 H 5.8007812 C 5.3575812,1043.3622 5,1043.0046 5,1042.5614 v -4.3984 c 0,-0.4432 0.3575812,-0.8008 0.8007812,-0.8008 z"
       style="color:#000000;overflow:visible;fill:#000000;fill-opacity:1;fill-rule:evenodd;stroke:none;stroke-width:2;stroke-miterlimit:4;stroke-dasharray:none;stroke-opacity:1" />
    <g
       style="opacity:1"
       id="rect1004-6">
      <path
         id="path1110"
         d="m 12,1031.3622 v 1 c 1,0 2,1 2,2 v 12 c 0,1 -1,2 -2,2 v 1 h 2 c 0.295273,-0.8737 0.494452,-1 1,-1 0.505548,0 0.704727,0.1263 1,1 h 2 v -1 c -1,0 -2,-1 -2,-2 v -12 c 0,-1 1,-2 2,-2 v -1 h -2 c -0.295273,0.8737 -0.494452,1 -1,1 -0.505548,0 -0.704727,-0.1263 -1,-1 z"
         style="color:#000000;font-style:normal;font-variant:normal;font-weight:normal;font-stretch:normal;font-size:medium;line-height:normal;font-family:sans-serif;font-variant-ligatures:normal;font-variant-position:normal;font-variant-caps:normal;font-variant-numeric:normal;font-variant-alternates:normal;font-variant-east-asian:normal;font-feature-settings:normal;font-variation-settings:normal;text-indent:0;text-align:start;text-decoration:none;text-decoration-line:none;text-decoration-style:solid;text-decoration-color:#000000;letter-spacing:normal;word-spacing:normal;text-transform:none;writing-mode:lr-tb;direction:ltr;text-orientation:mixed;dominant-baseline:auto;baseline-shift:baseline;text-anchor:start;white-space:normal;shape-padding:0;shape-margin:0;inline-size:0;clip-rule:nonzero;display:inline;overflow:visible;visibility:visible;isolation:auto;mix-blend-mode:normal;color-interpolation:sRGB;color-interpolation-filters:linearRGB;solid-color:#000000;solid-opacity:1;vector-effect:none;fill:#ffffff;fill-opacity:1;fill-rule:evenodd;stroke:none;stroke-width:2;stroke-linecap:butt;stroke-linejoin:miter;stroke-miterlimit:4;stroke-dasharray:none;stroke-dashoffset:0;stroke-opacity:1.0;filter-blend-mode:normal;filter-gaussianBlur-deviation:0;color-rendering:auto;image-rendering:auto;shape-rendering:auto;text-rendering:auto;enable-background:accumulate;" />
      <path
         id="path1112"
         d="m 11,1030.3613 v 1 2 h 1 c 0.166667,0 0.450104,0.1142 0.667969,0.3321 0.217865,0.2178 0.332031,0.5013 0.332031,0.6679 v 12 c 0,0.1667 -0.114166,0.4501 -0.332031,0.668 -0.217865,0.2179 -0.501302,0.332 -0.667969,0.332 h -1 v 3 h 2.716797 c 1.283203,-0.9991 1.283203,-0.9991 2.566398,0 H 19 v -3 h -1 c -0.166667,0 -0.450104,-0.1141 -0.667969,-0.332 C 17.114166,1046.8114 17,1046.528 17,1046.3613 v -12 c 0,-0.1666 0.114166,-0.4501 0.332031,-0.6679 0.217865,-0.2179 0.501302,-0.3321 0.667969,-0.3321 h 1 v -3 h -2.716797 c -1.283203,1.0009 -1.283203,1.0009 -2.566406,0 z"
         style="color:#000000;font-style:normal;font-variant:normal;font-weight:normal;font-stretch:normal;font-size:medium;line-height:normal;font-family:sans-serif;font-variant-ligatures:normal;font-variant-position:normal;font-variant-caps:normal;font-variant-numeric:normal;font-variant-alternates:normal;font-variant-east-asian:normal;font-feature-settings:normal;font-variation-settings:normal;text-indent:0;text-align:start;text-decoration:none;text-decoration-line:none;text-decoration-style:solid;text-decoration-color:#000000;letter-spacing:normal;word-spacing:normal;text-transform:none;writing-mode:lr-tb;direction:ltr;text-orientation:mixed;dominant-baseline:auto;baseline-shift:baseline;text-anchor:start;white-space:normal;shape-padding:0;shape-margin:0;inline-size:0;clip-rule:nonzero;display:inline;overflow:visible;visibility:visible;isolation:auto;mix-blend-mode:normal;color-interpolation:sRGB;color-interpolation-filters:linearRGB;solid-color:#000000;solid-opacity:1;vector-effect:none;fill:#ffffff;fill-opacity:1;fill-rule:evenodd;stroke:none;stroke-width:2;stroke-linecap:butt;stroke-linejoin:miter;stroke-miterlimit:4;stroke-dasharray:none;stroke-dashoffset:0;stroke-opacity:1;color-rendering:auto;image-rendering:auto;shape-rendering:auto;text-rendering:auto;enable-background:accumulate" />
    </g>
    <path
       id="rect1004"
       transform="translate(0,1028.3622)"
       d="M 12 3 L 12 4 C 13 4 14 5 14 6 L 14 18 C 14 19 13 20 12 20 L 12 21 L 14 21 C 14.295273 20.1263 14.494452 20 15 20 C 15.505548 20 15.704727 20.1263 16 21 L 18 21 L 18 20 C 17 20 16 19 16 18 L 16 6 C 16 5 17 4 18 4 L 18 3 L 16 3 C 15.704727 3.8737 15.505548 4 15 4 C 14.494452 4 14.295273 3.8737 14 3 L 12 3 z "
       style="color:#000000;overflow:visible;fill:#000000;fill-opacity:1;fill-rule:evenodd;stroke:none;stroke-width:2;stroke-miterlimit:4;stroke-dasharray:none;stroke-opacity:1" />
  </g>
</svg>
